

<svg id="frappe-symbols" aria-hidden="true" style="position: absolute; width: 0; height: 0; overflow: hidden;" class="d-block" xmlns="http://www.w3.org/2000/svg">
	<symbol viewBox="0 0 16 16" xmlns="http://www.w3.org/2000/svg" id="icon-chat-clefincode">
		<svg version="1.1" id="Layer_1" xmlns="http://www.w3.org/2000/svg" xmlns:xlink="http://www.w3.org/1999/xlink" x="0px" y="0px"
			 viewBox="0 0 465 443" enable-background="new 0 0 465 443" xml:space="preserve">
		<g>
			<path fill="#FFFFFF" stroke="#171E2F" stroke-width="29.1236" stroke-miterlimit="10" d="M59,295.2c-3.2-5.9-19.7-36.7-20.3-77.2
				c-1.1-69.9,45.8-117.4,52.4-123.9c55-54.1,126.7-51.2,148.3-50.3c21.6,0.9,91.5,3.8,142.1,60.7c9.7,10.9,55.6,65.3,43.6,137.9
				c-9.2,55.2-46.3,88-58.6,98.5c-32.7,28-67.2,36.5-84,40.4c-32.5,7.6-59,5.7-72.1,4.7c-25.3-2-46-7.5-60.7-12.4
				c-4.8,4-12,9.7-21.3,15.6c-26.1,16.5-59.8,29.4-64.3,22.8c-3.5-5.1,14.7-15.8,21.3-40.4c4.4-16.3,1.7-31.6-1.6-42.5
				C76.7,321.5,67.4,310.3,59,295.2z"/>
			<path fill="#171E2F" d="M131,186.6c-1.3,4.8-3.1,15.3,3.2,25.2c8.9,13.9,25.7,14,26.8,13.9c41,0.2,75.1-0.1,116.1,0
				c-0.1,0.3-0.2,0.6-0.3,0.9c-1.7,4.2-3.4,8.5-5.1,12.9c-3.5,8.8-7,17.8-10.5,26.3c0,0,0,0,0,0c-37.3,0.2-67.5-0.3-104.8,0
				c-3.5,0-8.1,0-13.4-0.7c0,0,0,0-0.1,0c-25.2-4-43.9-24.8-51.6-48.5c-0.2-0.6-0.4-1.2-0.6-1.9c-2-6.6-3-13.7-3-20.9
				c0-4.8,0.5-9.5,1.4-14c0.1-0.5,0.2-1,0.3-1.5c7.1-33.2,36-58.1,72-58.1c0,0,0,0,0,0h3.7c18.6,0,36.4,0,54,0h3.2c3,0,6,0,9.1,0
				c25.2,0,50.2,0,77.3,0l11.6,0c-5.4,13.7-10.9,27.3-17.5,42.9c-28.6-0.1-52.8-0.2-81.4-0.2c-20.5,0-41.1,0-61.6,0.1
				c-1.5,0.1-4.2,0.5-7.4,1.6c-3.2,1.1-7.1,2.9-10.7,6c-1.9,1.6-7.1,6.3-10,14.3c0,0.1-0.1,0.2-0.1,0.3c0,0.1-0.1,0.2-0.1,0.3
				c0,0.1-0.1,0.2-0.1,0.3c0,0.1-0.1,0.2-0.1,0.4S131.1,186.5,131,186.6z"/>
			<path fill="#EB9022" d="M331.2,252.5c1.3-4.8,3.1-15.3-3.2-25.2c-8.9-13.9-25.7-14-26.8-13.9c-41-0.2-79,0.1-119.9,0
				c0.1-0.3,0.2-0.6,0.3-0.9c1.7-4.2,3.4-8.5,5.1-12.9c3.5-8.8,7-17.8,10.5-26.3c0,0,0,0,0,0c37.3-0.2,71.4,0.3,108.7,0
				c3.5,0,8.1,0,13.4,0.7c0,0,0,0,0.1,0c25.2,4,43.9,24.8,51.6,48.5c0.2,0.6,0.4,1.2,0.6,1.9c2,6.6,3,13.7,3,20.9
				c0,4.8-0.5,9.5-1.4,14c-0.1,0.5-0.2,1-0.3,1.5c-7.1,33.2-36,58.1-72,58.1c0,0,0,0,0,0h-3.7c-18.6,0-36.4,0-54,0H240c-3,0-6,0-9.1,0
				c-25.2,0-50.2,0-77.3,0l-11.6,0c5.4-13.7,10.9-27.3,17.5-42.9c28.6,0.1,52.8,0.2,81.4,0.2c20.5,0,41.1,0,61.6-0.1
				c1.5-0.1,4.2-0.5,7.4-1.6c3.2-1.1,7.1-2.9,10.7-6c1.9-1.6,7.1-6.3,10-14.3c0-0.1,0.1-0.2,0.1-0.3c0-0.1,0.1-0.2,0.1-0.3
				c0-0.1,0.1-0.2,0.1-0.3c0-0.1,0.1-0.2,0.1-0.4C331.2,252.8,331.2,252.7,331.2,252.5z"/>
		</g>
		</svg>
	</symbol>
	<symbol viewBox="0 0 16 16" xmlns="http://www.w3.org/2000/svg" id="icon-close-chat">
		<svg xmlns="http://www.w3.org/2000/svg"  viewBox="0 0 50 50" width="16px" height="16px"><path d="M 9.15625 6.3125 L 6.3125 9.15625 L 22.15625 25 L 6.21875 40.96875 L 9.03125 43.78125 L 25 27.84375 L 40.9375 43.78125 L 43.78125 40.9375 L 27.84375 25 L 43.6875 9.15625 L 40.84375 6.3125 L 25 22.15625 Z" fill="white"/></svg>
	</symbol>

</svg>
