<!DOCTYPE svg PUBLIC "-//W3C//DTD SVG 1.1//EN" "http://www.w3.org/Graphics/SVG/1.1/DTD/svg11.dtd">

<!-- Uploaded to: SVG Repo, www.svgrepo.com, Transformed by: SVG Repo Mixer Tools -->
<svg fill="white" height="16px" width="16px" version="1.1" id="Layer_1" xmlns="http://www.w3.org/2000/svg" xmlns:xlink="http://www.w3.org/1999/xlink" viewBox="0 0 512.001 512.001" xml:space="preserve" transform="rotate(270)">

<g id="SVGRepo_bgCarrier" stroke-width="0"/>

<g id="SVGRepo_tracerCarrier" stroke-linecap="round" stroke-linejoin="round"/>

<g id="SVGRepo_iconCarrier"> <g> <g> <path fill = "white" d="M271.232,0L0,271.231l240.769,240.77L512,240.77V0H271.232z M481.046,227.948L240.769,468.224L43.776,271.231 L284.053,30.954h196.993V227.948z"/> </g> </g> <g> <g> <path d="M419.915,92.085c-8.769-8.77-20.43-13.599-32.831-13.599c-12.403,0-24.063,4.83-32.832,13.599 c-8.77,8.77-13.6,20.43-13.6,32.832c0,12.402,4.83,24.063,13.6,32.832c8.768,8.769,20.429,13.599,32.832,13.599 c12.402,0,24.062-4.83,32.831-13.6c8.77-8.769,13.6-20.43,13.6-32.832S428.685,100.855,419.915,92.085z M398.026,135.862 c-2.923,2.923-6.811,4.534-10.943,4.534c-4.134,0-8.021-1.611-10.944-4.534c-2.923-2.923-4.534-6.81-4.534-10.944 c0.001-4.133,1.611-8.02,4.534-10.944c2.923-2.923,6.811-4.533,10.944-4.533c4.133,0,8.02,1.61,10.943,4.534 c2.923,2.923,4.534,6.81,4.534,10.943C402.56,129.052,400.949,132.938,398.026,135.862z"/> </g> </g> </g>

</svg>